<mxfile host="app.diagrams.net" modified="2023-10-05T12:31:31.215Z" agent="Mozilla/5.0 (Macintosh; Intel Mac OS X 10.15; rv:109.0) Gecko/20100101 Firefox/120.0" etag="X0r58-x1RUPUyz1ejf-p" version="21.7.2" type="device">
  <diagram name="Page-1" id="c9h_wGTiAUTUz3Tpb9ft">
    <mxGraphModel dx="1216" dy="620" grid="1" gridSize="10" guides="1" tooltips="1" connect="1" arrows="1" fold="1" page="1" pageScale="1" pageWidth="3300" pageHeight="4681" math="0" shadow="0">
      <root>
        <mxCell id="0" />
        <mxCell id="1" parent="0" />
        <mxCell id="ycFiCpKTPgT0_nN1P7Uy-56" value="" style="rounded=0;whiteSpace=wrap;html=1;" vertex="1" parent="1">
          <mxGeometry y="70" width="1100" height="630" as="geometry" />
        </mxCell>
        <mxCell id="ycFiCpKTPgT0_nN1P7Uy-1" value="" style="rounded=1;whiteSpace=wrap;html=1;" vertex="1" parent="1">
          <mxGeometry x="120" y="120" width="320" height="240" as="geometry" />
        </mxCell>
        <mxCell id="ycFiCpKTPgT0_nN1P7Uy-2" value="" style="rounded=1;whiteSpace=wrap;html=1;" vertex="1" parent="1">
          <mxGeometry x="520" y="120" width="320" height="240" as="geometry" />
        </mxCell>
        <mxCell id="ycFiCpKTPgT0_nN1P7Uy-3" value="&lt;font style=&quot;font-size: 20px;&quot;&gt;ads.com — the publisher&lt;/font&gt;" style="text;html=1;strokeColor=none;fillColor=none;align=center;verticalAlign=middle;whiteSpace=wrap;rounded=0;" vertex="1" parent="1">
          <mxGeometry x="150" y="80" width="260" height="30" as="geometry" />
        </mxCell>
        <mxCell id="ycFiCpKTPgT0_nN1P7Uy-4" value="&lt;font style=&quot;font-size: 20px;&quot;&gt;shop.example.com — the advertiser&lt;/font&gt;" style="text;html=1;strokeColor=none;fillColor=none;align=center;verticalAlign=middle;whiteSpace=wrap;rounded=0;" vertex="1" parent="1">
          <mxGeometry x="510" y="80" width="340" height="30" as="geometry" />
        </mxCell>
        <mxCell id="ycFiCpKTPgT0_nN1P7Uy-5" value="" style="rounded=1;whiteSpace=wrap;html=1;" vertex="1" parent="1">
          <mxGeometry x="150" y="150" width="260" height="80" as="geometry" />
        </mxCell>
        <mxCell id="ycFiCpKTPgT0_nN1P7Uy-6" value="&lt;font style=&quot;font-size: 20px;&quot;&gt;Embedded ad from ad.example.com&lt;br&gt;&lt;/font&gt;" style="text;html=1;strokeColor=none;fillColor=none;align=center;verticalAlign=middle;whiteSpace=wrap;rounded=0;" vertex="1" parent="1">
          <mxGeometry x="150" y="175" width="260" height="30" as="geometry" />
        </mxCell>
        <mxCell id="ycFiCpKTPgT0_nN1P7Uy-7" value="" style="rounded=1;whiteSpace=wrap;html=1;" vertex="1" parent="1">
          <mxGeometry x="550" y="150" width="260" height="180" as="geometry" />
        </mxCell>
        <mxCell id="ycFiCpKTPgT0_nN1P7Uy-8" value="&lt;font style=&quot;font-size: 20px;&quot;&gt;Product in shop&lt;/font&gt;" style="text;html=1;strokeColor=none;fillColor=none;align=center;verticalAlign=middle;whiteSpace=wrap;rounded=0;" vertex="1" parent="1">
          <mxGeometry x="550" y="175" width="260" height="30" as="geometry" />
        </mxCell>
        <mxCell id="ycFiCpKTPgT0_nN1P7Uy-9" value="" style="rounded=1;whiteSpace=wrap;html=1;" vertex="1" parent="1">
          <mxGeometry x="660" y="280" width="130" height="30" as="geometry" />
        </mxCell>
        <mxCell id="ycFiCpKTPgT0_nN1P7Uy-10" value="Add to cart" style="text;html=1;strokeColor=none;fillColor=none;align=center;verticalAlign=middle;whiteSpace=wrap;rounded=0;" vertex="1" parent="1">
          <mxGeometry x="700" y="280" width="60" height="30" as="geometry" />
        </mxCell>
        <mxCell id="ycFiCpKTPgT0_nN1P7Uy-11" value="" style="shape=actor;whiteSpace=wrap;html=1;" vertex="1" parent="1">
          <mxGeometry x="20" y="180" width="80" height="120" as="geometry" />
        </mxCell>
        <mxCell id="ycFiCpKTPgT0_nN1P7Uy-12" value="" style="rounded=1;whiteSpace=wrap;html=1;" vertex="1" parent="1">
          <mxGeometry x="120" y="440" width="720" height="80" as="geometry" />
        </mxCell>
        <mxCell id="ycFiCpKTPgT0_nN1P7Uy-13" value="&lt;font style=&quot;font-size: 20px;&quot;&gt;Underlying web browser&lt;/font&gt;" style="text;html=1;strokeColor=none;fillColor=none;align=center;verticalAlign=middle;whiteSpace=wrap;rounded=0;" vertex="1" parent="1">
          <mxGeometry x="350" y="465" width="260" height="30" as="geometry" />
        </mxCell>
        <mxCell id="ycFiCpKTPgT0_nN1P7Uy-14" value="" style="shape=actor;whiteSpace=wrap;html=1;" vertex="1" parent="1">
          <mxGeometry x="860" y="180" width="80" height="120" as="geometry" />
        </mxCell>
        <mxCell id="ycFiCpKTPgT0_nN1P7Uy-23" value="" style="group" vertex="1" connectable="0" parent="1">
          <mxGeometry x="270" y="210" width="210" height="45" as="geometry" />
        </mxCell>
        <mxCell id="ycFiCpKTPgT0_nN1P7Uy-19" value="" style="rounded=0;whiteSpace=wrap;html=1;fillColor=#dae8fc;strokeColor=#6c8ebf;" vertex="1" parent="ycFiCpKTPgT0_nN1P7Uy-23">
          <mxGeometry x="20" y="7.5" width="190" height="30" as="geometry" />
        </mxCell>
        <mxCell id="ycFiCpKTPgT0_nN1P7Uy-20" value="" style="ellipse;whiteSpace=wrap;html=1;aspect=fixed;fillColor=#dae8fc;strokeColor=#6c8ebf;" vertex="1" parent="ycFiCpKTPgT0_nN1P7Uy-23">
          <mxGeometry width="45" height="45" as="geometry" />
        </mxCell>
        <mxCell id="ycFiCpKTPgT0_nN1P7Uy-21" value="&lt;font style=&quot;font-size: 20px;&quot;&gt;1&lt;/font&gt;" style="text;html=1;strokeColor=none;fillColor=none;align=center;verticalAlign=middle;whiteSpace=wrap;rounded=0;" vertex="1" parent="ycFiCpKTPgT0_nN1P7Uy-23">
          <mxGeometry x="12.5" y="7.5" width="20" height="30" as="geometry" />
        </mxCell>
        <mxCell id="ycFiCpKTPgT0_nN1P7Uy-22" value="Registers attribution source" style="text;html=1;strokeColor=none;fillColor=none;align=center;verticalAlign=middle;whiteSpace=wrap;rounded=0;" vertex="1" parent="ycFiCpKTPgT0_nN1P7Uy-23">
          <mxGeometry x="50" y="7.5" width="150" height="30" as="geometry" />
        </mxCell>
        <mxCell id="ycFiCpKTPgT0_nN1P7Uy-28" value="&lt;font style=&quot;font-size: 20px;&quot;&gt;User&lt;/font&gt;" style="text;html=1;strokeColor=none;fillColor=none;align=center;verticalAlign=middle;whiteSpace=wrap;rounded=0;" vertex="1" parent="1">
          <mxGeometry x="30" y="140" width="60" height="30" as="geometry" />
        </mxCell>
        <mxCell id="ycFiCpKTPgT0_nN1P7Uy-29" value="&lt;font style=&quot;font-size: 20px;&quot;&gt;User&lt;/font&gt;" style="text;html=1;strokeColor=none;fillColor=none;align=center;verticalAlign=middle;whiteSpace=wrap;rounded=0;" vertex="1" parent="1">
          <mxGeometry x="870" y="140" width="60" height="30" as="geometry" />
        </mxCell>
        <mxCell id="ycFiCpKTPgT0_nN1P7Uy-30" value="" style="group" vertex="1" connectable="0" parent="1">
          <mxGeometry x="60" y="260" width="210" height="45" as="geometry" />
        </mxCell>
        <mxCell id="ycFiCpKTPgT0_nN1P7Uy-24" value="" style="rounded=0;whiteSpace=wrap;html=1;fillColor=#dae8fc;strokeColor=#6c8ebf;" vertex="1" parent="ycFiCpKTPgT0_nN1P7Uy-30">
          <mxGeometry x="20" y="7.5" width="190" height="30" as="geometry" />
        </mxCell>
        <mxCell id="ycFiCpKTPgT0_nN1P7Uy-25" value="" style="ellipse;whiteSpace=wrap;html=1;aspect=fixed;fillColor=#dae8fc;strokeColor=#6c8ebf;" vertex="1" parent="ycFiCpKTPgT0_nN1P7Uy-30">
          <mxGeometry width="45" height="45" as="geometry" />
        </mxCell>
        <mxCell id="ycFiCpKTPgT0_nN1P7Uy-26" value="&lt;font style=&quot;font-size: 20px;&quot;&gt;2&lt;/font&gt;" style="text;html=1;strokeColor=none;fillColor=none;align=center;verticalAlign=middle;whiteSpace=wrap;rounded=0;" vertex="1" parent="ycFiCpKTPgT0_nN1P7Uy-30">
          <mxGeometry x="12.5" y="7.5" width="20" height="30" as="geometry" />
        </mxCell>
        <mxCell id="ycFiCpKTPgT0_nN1P7Uy-27" value="Performs ad interaction" style="text;html=1;strokeColor=none;fillColor=none;align=center;verticalAlign=middle;whiteSpace=wrap;rounded=0;" vertex="1" parent="ycFiCpKTPgT0_nN1P7Uy-30">
          <mxGeometry x="50" y="7.5" width="150" height="30" as="geometry" />
        </mxCell>
        <mxCell id="ycFiCpKTPgT0_nN1P7Uy-31" value="" style="endArrow=classic;html=1;rounded=0;exitX=0.5;exitY=1;exitDx=0;exitDy=0;entryX=0.088;entryY=-0.008;entryDx=0;entryDy=0;entryPerimeter=0;strokeWidth=4;" edge="1" parent="1" source="ycFiCpKTPgT0_nN1P7Uy-27" target="ycFiCpKTPgT0_nN1P7Uy-12">
          <mxGeometry width="50" height="50" relative="1" as="geometry">
            <mxPoint x="590" y="350" as="sourcePoint" />
            <mxPoint x="640" y="300" as="targetPoint" />
          </mxGeometry>
        </mxCell>
        <mxCell id="ycFiCpKTPgT0_nN1P7Uy-33" value="" style="rounded=0;whiteSpace=wrap;html=1;fillColor=#dae8fc;strokeColor=#6c8ebf;" vertex="1" parent="1">
          <mxGeometry x="190" y="340" width="150" height="40" as="geometry" />
        </mxCell>
        <mxCell id="ycFiCpKTPgT0_nN1P7Uy-32" value="Browser stores source data" style="text;html=1;strokeColor=none;fillColor=none;align=center;verticalAlign=middle;whiteSpace=wrap;rounded=0;" vertex="1" parent="1">
          <mxGeometry x="205" y="345" width="120" height="30" as="geometry" />
        </mxCell>
        <mxCell id="ycFiCpKTPgT0_nN1P7Uy-38" value="" style="group" vertex="1" connectable="0" parent="1">
          <mxGeometry x="560" y="230" width="210" height="45" as="geometry" />
        </mxCell>
        <mxCell id="ycFiCpKTPgT0_nN1P7Uy-34" value="" style="rounded=0;whiteSpace=wrap;html=1;fillColor=#dae8fc;strokeColor=#6c8ebf;" vertex="1" parent="ycFiCpKTPgT0_nN1P7Uy-38">
          <mxGeometry x="20" y="7.5" width="190" height="30" as="geometry" />
        </mxCell>
        <mxCell id="ycFiCpKTPgT0_nN1P7Uy-35" value="" style="ellipse;whiteSpace=wrap;html=1;aspect=fixed;fillColor=#dae8fc;strokeColor=#6c8ebf;" vertex="1" parent="ycFiCpKTPgT0_nN1P7Uy-38">
          <mxGeometry width="45" height="45" as="geometry" />
        </mxCell>
        <mxCell id="ycFiCpKTPgT0_nN1P7Uy-36" value="&lt;font style=&quot;font-size: 20px;&quot;&gt;3&lt;/font&gt;" style="text;html=1;strokeColor=none;fillColor=none;align=center;verticalAlign=middle;whiteSpace=wrap;rounded=0;" vertex="1" parent="ycFiCpKTPgT0_nN1P7Uy-38">
          <mxGeometry x="12.5" y="7.5" width="20" height="30" as="geometry" />
        </mxCell>
        <mxCell id="ycFiCpKTPgT0_nN1P7Uy-37" value="Registers attribution trigger" style="text;html=1;strokeColor=none;fillColor=none;align=center;verticalAlign=middle;whiteSpace=wrap;rounded=0;" vertex="1" parent="ycFiCpKTPgT0_nN1P7Uy-38">
          <mxGeometry x="50" y="7.5" width="150" height="30" as="geometry" />
        </mxCell>
        <mxCell id="ycFiCpKTPgT0_nN1P7Uy-46" value="" style="group" vertex="1" connectable="0" parent="1">
          <mxGeometry x="870" y="270" width="210" height="45" as="geometry" />
        </mxCell>
        <mxCell id="ycFiCpKTPgT0_nN1P7Uy-39" value="" style="rounded=0;whiteSpace=wrap;html=1;fillColor=#dae8fc;strokeColor=#6c8ebf;" vertex="1" parent="ycFiCpKTPgT0_nN1P7Uy-46">
          <mxGeometry x="20" y="7.5" width="190" height="30" as="geometry" />
        </mxCell>
        <mxCell id="ycFiCpKTPgT0_nN1P7Uy-40" value="" style="ellipse;whiteSpace=wrap;html=1;aspect=fixed;fillColor=#dae8fc;strokeColor=#6c8ebf;" vertex="1" parent="ycFiCpKTPgT0_nN1P7Uy-46">
          <mxGeometry width="45" height="45" as="geometry" />
        </mxCell>
        <mxCell id="ycFiCpKTPgT0_nN1P7Uy-41" value="&lt;font style=&quot;font-size: 20px;&quot;&gt;4&lt;/font&gt;" style="text;html=1;strokeColor=none;fillColor=none;align=center;verticalAlign=middle;whiteSpace=wrap;rounded=0;" vertex="1" parent="ycFiCpKTPgT0_nN1P7Uy-46">
          <mxGeometry x="12.5" y="7.5" width="20" height="30" as="geometry" />
        </mxCell>
        <mxCell id="ycFiCpKTPgT0_nN1P7Uy-42" value="Sets off attribution trigger" style="text;html=1;strokeColor=none;fillColor=none;align=center;verticalAlign=middle;whiteSpace=wrap;rounded=0;" vertex="1" parent="ycFiCpKTPgT0_nN1P7Uy-46">
          <mxGeometry x="50" y="7.5" width="150" height="30" as="geometry" />
        </mxCell>
        <mxCell id="ycFiCpKTPgT0_nN1P7Uy-47" value="" style="endArrow=classic;html=1;rounded=0;exitX=0.5;exitY=1;exitDx=0;exitDy=0;entryX=0.914;entryY=-0.012;entryDx=0;entryDy=0;entryPerimeter=0;strokeWidth=4;" edge="1" parent="1" source="ycFiCpKTPgT0_nN1P7Uy-42" target="ycFiCpKTPgT0_nN1P7Uy-12">
          <mxGeometry width="50" height="50" relative="1" as="geometry">
            <mxPoint x="984.5" y="305" as="sourcePoint" />
            <mxPoint x="982.5" y="446" as="targetPoint" />
          </mxGeometry>
        </mxCell>
        <mxCell id="ycFiCpKTPgT0_nN1P7Uy-48" value="" style="rounded=0;whiteSpace=wrap;html=1;fillColor=#dae8fc;strokeColor=#6c8ebf;" vertex="1" parent="1">
          <mxGeometry x="900" y="370" width="150" height="50" as="geometry" />
        </mxCell>
        <mxCell id="ycFiCpKTPgT0_nN1P7Uy-49" value="Browser tries to match trigger with stored source data" style="text;html=1;strokeColor=none;fillColor=none;align=center;verticalAlign=middle;whiteSpace=wrap;rounded=0;" vertex="1" parent="1">
          <mxGeometry x="915" y="377.5" width="120" height="35" as="geometry" />
        </mxCell>
        <mxCell id="ycFiCpKTPgT0_nN1P7Uy-50" value="" style="rounded=1;whiteSpace=wrap;html=1;" vertex="1" parent="1">
          <mxGeometry x="120" y="600" width="720" height="80" as="geometry" />
        </mxCell>
        <mxCell id="ycFiCpKTPgT0_nN1P7Uy-51" value="&lt;font style=&quot;font-size: 20px;&quot;&gt;Reporting server&lt;br&gt;&lt;/font&gt;" style="text;html=1;strokeColor=none;fillColor=none;align=center;verticalAlign=middle;whiteSpace=wrap;rounded=0;" vertex="1" parent="1">
          <mxGeometry x="350" y="625" width="260" height="30" as="geometry" />
        </mxCell>
        <mxCell id="ycFiCpKTPgT0_nN1P7Uy-52" value="" style="endArrow=classic;html=1;rounded=0;exitX=0.5;exitY=1;exitDx=0;exitDy=0;strokeWidth=4;" edge="1" parent="1">
          <mxGeometry width="50" height="50" relative="1" as="geometry">
            <mxPoint x="480" y="520" as="sourcePoint" />
            <mxPoint x="478" y="600" as="targetPoint" />
          </mxGeometry>
        </mxCell>
        <mxCell id="ycFiCpKTPgT0_nN1P7Uy-53" value="" style="group" vertex="1" connectable="0" parent="1">
          <mxGeometry x="480" y="500" width="210" height="45" as="geometry" />
        </mxCell>
        <mxCell id="ycFiCpKTPgT0_nN1P7Uy-17" value="" style="rounded=0;whiteSpace=wrap;html=1;fillColor=#dae8fc;strokeColor=#6c8ebf;" vertex="1" parent="ycFiCpKTPgT0_nN1P7Uy-53">
          <mxGeometry x="20" y="7.5" width="190" height="30" as="geometry" />
        </mxCell>
        <mxCell id="ycFiCpKTPgT0_nN1P7Uy-15" value="" style="ellipse;whiteSpace=wrap;html=1;aspect=fixed;fillColor=#dae8fc;strokeColor=#6c8ebf;" vertex="1" parent="ycFiCpKTPgT0_nN1P7Uy-53">
          <mxGeometry width="45" height="45" as="geometry" />
        </mxCell>
        <mxCell id="ycFiCpKTPgT0_nN1P7Uy-16" value="&lt;font style=&quot;font-size: 20px;&quot;&gt;5&lt;/font&gt;" style="text;html=1;strokeColor=none;fillColor=none;align=center;verticalAlign=middle;whiteSpace=wrap;rounded=0;" vertex="1" parent="ycFiCpKTPgT0_nN1P7Uy-53">
          <mxGeometry x="12.5" y="7.5" width="20" height="30" as="geometry" />
        </mxCell>
        <mxCell id="ycFiCpKTPgT0_nN1P7Uy-18" value="Match found" style="text;html=1;strokeColor=none;fillColor=none;align=center;verticalAlign=middle;whiteSpace=wrap;rounded=0;" vertex="1" parent="ycFiCpKTPgT0_nN1P7Uy-53">
          <mxGeometry x="50" y="7.5" width="150" height="30" as="geometry" />
        </mxCell>
        <mxCell id="ycFiCpKTPgT0_nN1P7Uy-54" value="" style="rounded=0;whiteSpace=wrap;html=1;fillColor=#dae8fc;strokeColor=#6c8ebf;" vertex="1" parent="1">
          <mxGeometry x="320" y="540" width="150" height="40" as="geometry" />
        </mxCell>
        <mxCell id="ycFiCpKTPgT0_nN1P7Uy-55" value="Browser sends report to reporting server" style="text;html=1;strokeColor=none;fillColor=none;align=center;verticalAlign=middle;whiteSpace=wrap;rounded=0;" vertex="1" parent="1">
          <mxGeometry x="335" y="542.5" width="120" height="35" as="geometry" />
        </mxCell>
      </root>
    </mxGraphModel>
  </diagram>
</mxfile>
